<?xml version="1.0" encoding="UTF-8"?>
<svg xmlns="http://www.w3.org/2000/svg" style="display:none">
  <!-- Navigation icons -->
  <symbol id="icon-dashboard" viewBox="0 0 24 24">
    <path fill="currentColor" d="M4 13h7V4H4v9Zm0 7h7v-5H4v5Zm9 0h7V11h-7v9Zm0-16v6h7V4h-7Z"/>
  </symbol>

  <symbol id="icon-book" viewBox="0 0 24 24">
    <path fill="currentColor" d="M6 2h12a2 2 0 0 1 2 2v16a2 2 0 0 1-2 2H7a3 3 0 0 1-3-3V4a2 2 0 0 1 2-2Zm1 18h11V4H7v16Zm0 0a1 1 0 0 1-1-1"/>
    <path fill="currentColor" d="M8 7h8v2H8V7Zm0 4h8v2H8v-2Z"/>
  </symbol>

  <symbol id="icon-clipboard" viewBox="0 0 24 24">
    <path fill="currentColor" d="M16 4h-1.2a3 3 0 0 0-5.6 0H8a2 2 0 0 0-2 2v14a2 2 0 0 0 2 2h8a2 2 0 0 0 2-2V6a2 2 0 0 0-2-2Zm-4-1a1 1 0 0 1 1 1h-2a1 1 0 0 1 1-1Zm4 18H8V6h1.5v2h5V6H16v15Z"/>
    <path fill="currentColor" d="M9 11h6v2H9v-2Zm0 4h6v2H9v-2Z"/>
  </symbol>

  <!-- Login icons -->
  <symbol id="icon-mail" viewBox="0 0 24 24">
    <path fill="currentColor" d="M20 4H4a2 2 0 0 0-2 2v12a2 2 0 0 0 2 2h16a2 2 0 0 0 2-2V6a2 2 0 0 0-2-2Zm0 4-8 5-8-5V6l8 5 8-5v2Z"/>
  </symbol>

  <symbol id="icon-lock" viewBox="0 0 24 24">
    <path fill="currentColor" d="M17 8h-1V6a4 4 0 0 0-8 0v2H7a2 2 0 0 0-2 2v10a2 2 0 0 0 2 2h10a2 2 0 0 0 2-2V10a2 2 0 0 0-2-2Zm-7-2a2 2 0 0 1 4 0v2h-4V6Z"/>
  </symbol>

  <!-- Actions -->
  <symbol id="icon-plus" viewBox="0 0 24 24">
    <path fill="currentColor" d="M11 5h2v14h-2V5Zm-6 6h14v2H5v-2Z"/>
  </symbol>

  <symbol id="icon-eye" viewBox="0 0 24 24">
    <path fill="currentColor" d="M12 5c5.5 0 9.7 4.3 11 7-1.3 2.7-5.5 7-11 7S2.3 14.7 1 12c1.3-2.7 5.5-7 11-7Zm0 2C7.9 7 4.6 10 3.3 12 4.6 14 7.9 17 12 17s7.4-3 8.7-5C19.4 10 16.1 7 12 7Zm0 2.5A2.5 2.5 0 1 1 9.5 12 2.5 2.5 0 0 1 12 9.5Z"/>
  </symbol>

  <symbol id="icon-download" viewBox="0 0 24 24">
    <path fill="currentColor" d="M12 3v10.2l3.3-3.3 1.4 1.4L12 16l-4.7-4.7 1.4-1.4L11 13.2V3h1ZM5 19h14v2H5v-2Z"/>
  </symbol>

  <symbol id="icon-trash" viewBox="0 0 24 24">
    <path fill="currentColor" d="M9 3h6l1 2h5v2H3V5h5l1-2Zm1 6h2v10h-2V9Zm4 0h2v10h-2V9ZM6 9h2v10H6V9Z"/>
  </symbol>
</svg>
